<svg width="45" height="44" viewBox="0 0 45 44" fill="none" xmlns="http://www.w3.org/2000/svg">
<path d="M25.1333 5.36655C26.422 4.07781 28.5114 4.07781 29.8001 5.36655L39.1341 14.7004C40.4228 15.9891 40.4228 18.0785 39.1341 19.3673L21.1008 37.4004H32.4001C33.0075 37.4004 33.5001 37.893 33.5001 38.5004C33.5001 39.1081 33.0075 39.6004 32.4001 39.6004H17.7032C16.8017 39.6477 15.8845 39.3272 15.1959 38.6384L5.86204 29.3047C4.57333 28.0159 4.57333 25.9266 5.86204 24.6378L25.1333 5.36655ZM22.0182 33.3718L11.1288 22.4822L7.41769 26.1934C6.98812 26.6231 6.98812 27.3194 7.41769 27.749L16.7515 37.0828C17.1811 37.5124 17.8776 37.5124 18.3071 37.0828L22.0182 33.3718Z" fill="white"/>
</svg>
