<svg width="45" height="44" viewBox="0 0 45 44" fill="none" xmlns="http://www.w3.org/2000/svg">
<path d="M25.6453 35.0436L15.3328 7.54361C15.1977 7.1832 14.9558 6.87262 14.6394 6.65338C14.3231 6.43413 13.9473 6.31665 13.5625 6.31665C13.1776 6.31665 12.8018 6.43413 12.4855 6.65338C12.1691 6.87262 11.9272 7.1832 11.7921 7.54361L1.47964 35.0436C1.30908 35.5119 1.33032 36.0286 1.53876 36.4813C1.74719 36.934 2.12594 37.2861 2.59264 37.461C3.05933 37.6359 3.57621 37.6195 4.03083 37.4152C4.48545 37.211 4.84105 36.8355 5.02027 36.3705L8.12777 28.0844C8.14001 28.0516 8.16195 28.0234 8.19066 28.0034C8.21938 27.9835 8.2535 27.9727 8.28847 27.9727H18.8364C18.8714 27.9727 18.9055 27.9835 18.9342 28.0034C18.963 28.0234 18.9849 28.0516 18.9971 28.0844L22.1046 36.3705C22.2839 36.8355 22.6395 37.211 23.0941 37.4152C23.5487 37.6195 24.0656 37.6359 24.5323 37.461C24.999 37.2861 25.3777 36.934 25.5862 36.4813C25.7946 36.0286 25.8158 35.5119 25.6453 35.0436ZM9.67464 23.9577L13.4018 14.019C13.4141 13.9864 13.4361 13.9583 13.4648 13.9385C13.4935 13.9187 13.5276 13.9081 13.5625 13.9081C13.5973 13.9081 13.6314 13.9187 13.6601 13.9385C13.6888 13.9583 13.7108 13.9864 13.7232 14.019L17.4503 23.9594C17.46 23.9854 17.4632 24.0133 17.4598 24.0408C17.4564 24.0683 17.4463 24.0946 17.4306 24.1174C17.4148 24.1402 17.3937 24.1588 17.3692 24.1717C17.3446 24.1846 17.3173 24.1914 17.2896 24.1914H9.83534C9.80761 24.1914 9.78031 24.1846 9.75576 24.1717C9.7312 24.1588 9.71014 24.1402 9.69435 24.1174C9.67856 24.0946 9.66852 24.0683 9.66509 24.0408C9.66166 24.0133 9.66494 23.9854 9.67464 23.9594V23.9577Z" fill="white"/>
<path d="M34.9412 14.5664C31.3559 14.5406 28.1452 16.6177 26.7771 19.843C26.5811 20.3045 26.5765 20.825 26.7642 21.29C26.952 21.7549 27.3167 22.1262 27.7783 22.3223C28.2398 22.5183 28.7603 22.5229 29.2253 22.3352C29.6902 22.1474 30.0616 21.7826 30.2576 21.3211C31.0207 19.5259 32.8159 18.3614 34.8398 18.3476C37.6173 18.3287 39.8594 20.625 39.8594 23.4051C39.8594 23.4385 39.8464 23.4707 39.8232 23.4947C39.7999 23.5188 39.7682 23.5329 39.7348 23.534C37.851 23.5864 35.6166 23.7119 33.6229 23.9465C28.9178 24.4999 26.1094 27.0651 26.1094 30.8086C26.1094 32.8015 26.8622 34.5898 28.2295 35.8514C29.5125 37.033 31.2656 37.6836 33.1562 37.6836C35.8203 37.6836 38.114 36.9961 39.8542 35.6881H39.8594C39.8583 35.9364 39.9061 36.1825 40.0002 36.4123C40.0942 36.642 40.2325 36.8511 40.4074 37.0274C40.5822 37.2037 40.79 37.3439 41.0189 37.4399C41.2479 37.5359 41.4936 37.5858 41.7418 37.5869C41.9901 37.588 42.2362 37.5401 42.466 37.4461C42.6958 37.3521 42.9048 37.2137 43.0811 37.0389C43.2574 36.8641 43.3976 36.6563 43.4936 36.4273C43.5896 36.1984 43.6396 35.9527 43.6406 35.7044V23.4154C43.6406 18.5874 39.7734 14.6016 34.9412 14.5664ZM33.1562 33.9023C31.6498 33.9023 29.8906 33.0919 29.8906 30.8086C29.8906 29.8916 30.2198 29.2497 30.9588 28.7263C31.6781 28.2167 32.7807 27.8532 34.0646 27.7019C35.8796 27.488 37.9163 27.3702 39.6626 27.3178C39.6859 27.3178 39.709 27.3225 39.7304 27.3317C39.7518 27.3408 39.7712 27.3543 39.7873 27.3711C39.8033 27.388 39.8158 27.408 39.8239 27.4299C39.832 27.4517 39.8356 27.475 39.8345 27.4983C39.6016 31.8055 37.4067 33.9023 33.1562 33.9023Z" fill="white"/>
</svg>
