<svg width="45" height="44" viewBox="0 0 45 44" fill="none" xmlns="http://www.w3.org/2000/svg">
<path fill-rule="evenodd" clip-rule="evenodd" d="M17 4.125C17.3647 4.125 17.7145 4.26987 17.9723 4.52773C18.2302 4.78559 18.375 5.13533 18.375 5.5V8.261C21.6501 8.31037 24.9201 8.53742 28.1705 8.94117C28.3498 8.96356 28.5229 9.02103 28.6799 9.11031C28.8369 9.19959 28.9748 9.31893 29.0857 9.4615C29.1967 9.60408 29.2784 9.76711 29.3263 9.94127C29.3742 10.1154 29.3874 10.2973 29.365 10.4766C29.3426 10.6558 29.2851 10.8289 29.1958 10.9859C29.1065 11.143 28.9872 11.2809 28.8446 11.3918C28.702 11.5027 28.539 11.5844 28.3649 11.6323C28.1907 11.6803 28.0088 11.6934 27.8295 11.671C26.6195 11.5188 25.404 11.3942 24.1812 11.2933C23.1117 15.4656 21.2644 19.3984 18.7362 22.8855C19.3192 23.5895 19.9279 24.266 20.5695 24.915C20.8253 25.1751 20.9672 25.5262 20.9641 25.891C20.9611 26.2558 20.8132 26.6044 20.553 26.8602C20.2929 27.1159 19.9418 27.2579 19.577 27.2548C19.2123 27.2517 18.8636 27.1038 18.6079 26.8437C18.0521 26.2786 17.5158 25.6947 17 25.0928C14.1059 28.475 10.5848 31.2653 6.63071 33.3098C6.30664 33.4771 5.92939 33.5088 5.58196 33.3979C5.23454 33.287 4.94539 33.0427 4.77812 32.7186C4.61086 32.3945 4.57919 32.0173 4.69007 31.6698C4.80095 31.3224 5.0453 31.0333 5.36937 30.866C9.171 28.8996 12.5359 26.1851 15.262 22.8855C13.6626 20.6772 12.332 18.2862 11.2984 15.763C11.1684 15.4272 11.1754 15.0538 11.3178 14.723C11.4602 14.3923 11.7267 14.1306 12.06 13.9942C12.3932 13.8579 12.7667 13.8577 13.1001 13.9937C13.4335 14.1297 13.7003 14.3911 13.843 14.7217C14.6861 16.7794 15.7443 18.7421 17 20.5773C18.9779 17.6868 20.4594 14.4865 21.3835 11.1082C16.3058 10.8563 11.2158 11.0447 6.17054 11.671C5.80854 11.7162 5.44341 11.6158 5.15546 11.3918C4.86751 11.1678 4.68034 10.8386 4.63512 10.4766C4.58991 10.1146 4.69034 9.74945 4.91434 9.4615C5.13833 9.17356 5.46754 8.98639 5.82954 8.94117C9.07992 8.53661 12.3499 8.30955 15.625 8.261V5.5C15.625 5.13533 15.7699 4.78559 16.0278 4.52773C16.2856 4.26987 16.6354 4.125 17 4.125ZM29.375 16.5C29.6369 16.4999 29.8933 16.5746 30.1141 16.7152C30.3349 16.8558 30.511 17.0566 30.6217 17.2938L40.2467 37.9188C40.323 38.0825 40.3664 38.2597 40.3742 38.4402C40.3821 38.6206 40.3543 38.8008 40.2925 38.9706C40.2307 39.1403 40.1361 39.2962 40.014 39.4294C39.892 39.5625 39.7449 39.6703 39.5812 39.7467C39.2506 39.9008 38.8722 39.9173 38.5295 39.7925C38.1867 39.6677 37.9075 39.4118 37.7534 39.0812L35.557 34.375H23.193L20.9967 39.0812C20.8426 39.4118 20.5634 39.6677 20.2206 39.7925C19.8778 39.9173 19.4995 39.9008 19.1689 39.7467C18.8382 39.5925 18.5824 39.3134 18.4576 38.9706C18.3328 38.6278 18.3492 38.2495 18.5034 37.9188L28.1284 17.2938C28.239 17.0566 28.4151 16.8558 28.636 16.7152C28.8568 16.5746 29.1132 16.4999 29.375 16.5ZM24.4764 31.625H34.2737L29.375 21.1273L24.4764 31.625Z" fill="white"/>
</svg>
